# xmcd
#
# Track frame offsets:
#       150
#       11381
#       24760
#       36706
#       48563
#       65348
#       77608
#       88540
#       106443
#       118009
#       131606
#       143464
#       159551
#       172022
#       184685
#       198275
#       210224
#       226341
#       238164
#       248145
#
# Disc length: 3436 seconds
#
# Revision: 0
# Processed by: cddbd v1.4PL0 Copyright (c) Steve Scherf et al.
# Submitted via: CD-DA_X-Tractor v0.23
#
DISCID=030d6a14
DTITLE=John Lee Hooker - Best of
DYEAR=1900
DGENRE=
TTITLE0=Boom Boom
TTITLE1=Trouble Blues
TTITLE2=Crawlin' Kingsnake
TTITLE3=Whiskey And Wimmen
TTITLE4=Blues Before Sunrise
TTITLE5=Crawlin' Black Spider
TTITLE6=Big Fine Woman
TTITLE7=House Rent Boogie
TTITLE8=Hard Headed Woman
TTITLE9=Road Is So Rough
TTITLE10=I'm A Stranger
TTITLE11=When My First Wife Left Me
TTITLE12=I'm So Excited
TTITLE13=Baby Lee
TTITLE14=Time Is Marching
TTITLE15=Everybody's Rockin'
TTITLE16=Mama, You've Got A Daughter
TTITLE17=I'm Mad Again
TTITLE18=I Wanna Walk
TTITLE19=Run On
EXTD=
EXTT0=
EXTT1=
EXTT2=
EXTT3=
EXTT4=
EXTT5=
EXTT6=
EXTT7=
EXTT8=
EXTT9=
EXTT10=
EXTT11=
EXTT12=
EXTT13=
EXTT14=
EXTT15=
EXTT16=
EXTT17=
EXTT18=
EXTT19=
PLAYORDER=
